/* XPM */
static char * collectable_xpm[] = {
"128 128 2 1",
" 	c None",
".	c #183600",
"                                                                                                                                ",
"                                                                                                                                ",
"                                                                                                                                ",
"                                                                                                                                ",
"                                                                                                                                ",
"                                                                                                                                ",
"                                                                                                                                ",
"                                                           ............                                                         ",
"                                                         ..........................                                             ",
"                                                        ...........................                                             ",
"                                                       ............................                                             ",
"                                                       ............................                                             ",
"                                                     ...............................                                            ",
"                                                   ...................................                                          ",
"                                                  .....................................                                         ",
"                                                  .....................................                                         ",
"                                                 ......................................                                         ",
"                                                ........................................                                        ",
"                                               .........................................                                        ",
"                                               ..........................................                                       ",
"                                               ..........................................                                       ",
"                                              ...........................................                                       ",
"                                              ...........................................                                       ",
"                                             ............................................                                       ",
"                                             ............................................                                       ",
"              .............                  ............................................                                       ",
"            ...............                  ............................................                                       ",
"            .................                ............................................                                       ",
"         .......................             .............................................                                      ",
"         .......................             .............................................                                      ",
"        ........................            ..............................................                                      ",
"        .........................           ..............................................                                      ",
"        .........................           ..............................................                                      ",
"        .........................           ..............................................                                      ",
"        .........................           ..............................................                                      ",
"        .........................           ..............................................                                      ",
"       ...........................          ..............................................                                      ",
"       ...........................          ..............................................                                      ",
"       ...........................           .............................................                                      ",
"       ...........................           .............................................                                      ",
"       ...........................           .............................................                                      ",
"       ...........................           .............................................                                      ",
"       ...........................           .............................................                                      ",
"       ...........................           .............................................                                      ",
"       ...........................           .............................................                                      ",
"       ...........................           .............................................                                      ",
"       ...........................           .............................................                                      ",
"       ...........................           .............................................                                      ",
"        ...........................          .............................................                                      ",
"        ...........................          .............................................                                      ",
"        ............................         .............................................                                      ",
"        ................................     .............................................                                      ",
"        ..................................................................................                                      ",
"        ..................................................................................                                      ",
"         .................................................................................                                      ",
"         .................................................................................                                      ",
"         .................................................................................                                      ",
"         .................................................................................                                      ",
"         .................................................................................                                      ",
"          ................................................................................                                      ",
"          ................................................................................                                      ",
"          ................................................................................                                      ",
"          ................................................................................                                      ",
"           ...............................................................................                                      ",
"           ...............................................................................                                      ",
"           ..............................................................................                                       ",
"            .............................................................................                                       ",
"            .............................................................................                                       ",
"            .............................................................................                                       ",
"            .............................................................................                                       ",
"             ............................................................................                                       ",
"             ............................................................................                                       ",
"             ............................................................................                                       ",
"             ............................................................................                                       ",
"              ...........................................................................                                       ",
"              ...........................................................................                                       ",
"               ..........................................................................                                       ",
"                .........................................................................                                       ",
"                .........................................................................                                       ",
"                  .......................................................................                                       ",
"                    .....................................................................                                       ",
"                              ...........      ..........................................                                       ",
"                                                 ........................................                                       ",
"                                                 .......................................                                        ",
"                                                  ......................................                                        ",
"                                                  ......................................                                        ",
"                                                  ......................................                                        ",
"                                                  ......................................                                        ",
"                                                  ......................................                                        ",
"                                                  ......................................                                        ",
"                                                  ......................................                                        ",
"                                                  ......................................                                        ",
"                                                  ......................................                                        ",
"                                                   .....................................                                        ",
"                                                   .....................................                                        ",
"                                                   ....................................                                         ",
"                                                   ....................................                                         ",
"                                                   ....................................                                         ",
"                                                   ....................................                                         ",
"                                                   ....................................                                         ",
"                                                    ...................................                                         ",
"                                                    ...................................                                         ",
"                                                    ...................................                                         ",
"                                                    ...................................                                         ",
"                                                    ...................................                                         ",
"                                                    ...................................                                         ",
"                                                    ...................................                                         ",
"                                                    ...................................                                         ",
"                                                    ...................................                                         ",
"                                                    ...................................                                         ",
"                                                    ...................................                                         ",
"                                                    ...................................                                         ",
"                                                    ...................................                                         ",
"                                                    ...................................                                         ",
"                                                    ...................................                                         ",
"                                                    ...................................                                         ",
"                                                    ...................................                                         ",
"                                                    ..................................                                          ",
"                                                    ..................................                                          ",
"                                                    ..................................                                          ",
"                                                    .................................                                           ",
"                                                     ................................                                           ",
"                                                      ............................                                              ",
"                                                         ..................                                                     ",
"                                                                                                                                ",
"                                                                                                                                ",
"                                                                                                                                ",
"                                                                                                                                "};
