/* XPM */
static char * player_xpm[] = {
"100 100 54 1",
" 	c None",
".	c #161616",
"+	c #151515",
"@	c #141414",
"#	c #121212",
"$	c #111111",
"%	c #191919",
"&	c #1D1D1D",
"*	c #232323",
"=	c #252525",
"-	c #262626",
";	c #272727",
">	c #1F1F1F",
",	c #181818",
"'	c #171717",
")	c #2C2C2C",
"!	c #2D2D2D",
"~	c #282828",
"{	c #2B2B2B",
"]	c #2F2F2F",
"^	c #303030",
"/	c #333333",
"(	c #353535",
"_	c #393939",
":	c #3A3A3A",
"<	c #313131",
"[	c #1A1A1A",
"}	c #212121",
"|	c #1E1E1E",
"1	c #373737",
"2	c #3D3D3D",
"3	c #3E3E3E",
"4	c #3C3C3C",
"5	c #3F3F3F",
"6	c #3B3B3B",
"7	c #363636",
"8	c #2A2A2A",
"9	c #1B1B1B",
"0	c #323232",
"a	c #343434",
"b	c #292929",
"c	c #242424",
"d	c #383838",
"e	c #1C1C1C",
"f	c #0A0A0A",
"g	c #0D0D0D",
"h	c #404040",
"i	c #2E2E2E",
"j	c #101010",
"k	c #222222",
"l	c #0F0F0F",
"m	c #131313",
"n	c #0E0E0E",
"o	c #202020",
"                                                                                                    ",
"                                                                                                    ",
"                                                                                                    ",
"                                                                                                    ",
"                                                                                                    ",
"                                                                                                    ",
"                                                                                                    ",
"                                                                                                    ",
"                                                                                                    ",
"                                                                                                    ",
"                                                                                                    ",
"                                                                                                    ",
"                                                                                                    ",
"                                                                                                    ",
"                                                                                                    ",
"                                                                                                    ",
"                                                                                                    ",
"                                                                                                    ",
"                                                                                                    ",
"                                                                                                    ",
"                                                                                                    ",
"                                                                                                    ",
"                                                                                                    ",
"                                                                                                    ",
"                                                                                                    ",
"                                                                                                    ",
"                                                                                                    ",
"                                                                                                    ",
"                                                                                                    ",
"                                                                                                    ",
"                                         ...............                                            ",
"                                   ...........................                                      ",
"                                  .............................                                     ",
"                                 .................................                                  ",
"                              ......................................                                ",
"                             ........................................                               ",
"                            ..........................................                              ",
"                           ............................................                             ",
"                          ..............................................                            ",
"                         ................................................                           ",
"                         .................................................                          ",
"                         ....................+++++++++.....................                         ",
"                        ...................++@#$$#%&*==---;=>,'............                         ",
"                       .................++.>)!~{]^/(____:::_(<);>,.........                         ",
"                       ...............[}|{]1234355336::____:2524789.........                        ",
"                      ..............%=01723323246:__1a<)b-*cb]d534a~[........                       ",
"                      ...........+[-^:34346_623335553410!-e#fg&]7554![.......                       ",
"                      .........+@e]:226!{b0_23355hh5532461i>jjjj[0436;'......                       ",
"                      ........+#%/36_]kjl|0424625hhh534_42d8[@mm$+{62a|......                       ",
"                      .......+#'<35ak+$gmk(24174355553:76320k.@.+m+*(5ae.....                       ",
"                      .......ml833_*@@@j.=13:<^:2335hh34353(;'#..+mn]54~'.....                      ",
"                     ........m@(5:=,..+$.c134a/62355hh55hh518.$...@gb26;......                      ",
"                    .........@-63^%...+#m>(336:235hhhhhhhh5d8.j..+#ma54-......                      ",
"                      .......[<2/&.....@j'!:53355hhhhhh555518.j..m#-637>.....                       ",
"                      ........^50%+....+j#*/355555hhhh5555518+l+@,8726b,.....                       ",
"                      .......+!2:8,++...m$,8:35555hhhh535551b@l,=a22/;[......                       ",
"                      .......+-_66ib9@+.+mj>^:55555555335h3a=,*0453/&........                       ",
"                      ........[{6522({i}.mn+k^_42333332226(8=a655:]&........                        ",
"                      .........[~a63523d]{{!)]0d666222461(0^1522(*,........                         ",
"                       .........'[-!0:425225226433335526d62554<8e..........                         ",
"                       ............'[c;{]//</(__7(a166:63:(^i;9'...........                         ",
"                       ...............+.'ee%e>==>||o-;-~!;|,..............                          ",
"                        ................................'................                           ",
"                         ...............................................                            ",
"                         ..............................................                             ",
"                          ............................................                              ",
"                           ..........................................                               ",
"                            ........................................                                ",
"                            .......................................                                 ",
"                            ....................................                                    ",
"                               ..............................                                       ",
"                                .............................                                       ",
"                                  ........................                                          ",
"                                   ..........   ..........                                          ",
"                                    ........    ..........                                          ",
"                                    ........    ...........                                         ",
"                                    ........     ..........                                         ",
"                                    .........     .........                                         ",
"                                    .........     .........                                         ",
"                                    .........     .........                                         ",
"                                    .........     .........                                         ",
"                                    .........     .........                                         ",
"                                    .........     .........                                         ",
"                                    .........     .........                                         ",
"                                    .........     .........                                         ",
"                                    .........     .........                                         ",
"                                    .........     .........                                         ",
"                                   ..........     ...........                                       ",
"                                  ...........     .............                                     ",
"                               ..............     ...............                                   ",
"                               ..............     ................                                  ",
"                              ...............     .................                                 ",
"                              ...............     ..................                                ",
"                              ...............     ...................                               ",
"                              ...............       ..................                              ",
"                              ...............        .................                              ",
"                              ...............        .................                              ",
"                                 ...........           ..............                               ",
"                                   .....                ............                                ",
"                                    ...                 ...........                                 "};
